<svg width="1329" height="220" viewBox="0 0 1329 220" fill="none" xmlns="http://www.w3.org/2000/svg">
<path d="M15.2 40H44.4V180H15.2V40ZM62.8 180H33.6V154H61.8C67.9333 154 73.7333 153.2 79.2 151.6C84.6667 149.867 89.4667 147.2 93.6 143.6C97.7333 140 100.933 135.467 103.2 130C105.6 124.4 106.8 117.733 106.8 110C106.8 102.267 105.6 95.6667 103.2 90.2C100.933 84.6 97.7333 80 93.6 76.4C89.4667 72.8 84.6667 70.2 79.2 68.6C73.7333 66.8667 67.9333 66 61.8 66H33.6V40H62.8C77.4667 40 90.2667 42.8667 101.2 48.6C112.267 54.3333 120.867 62.4667 127 73C133.133 83.4 136.2 95.7333 136.2 110C136.2 124.267 133.133 136.667 127 147.2C120.867 157.6 112.267 165.667 101.2 171.4C90.2667 177.133 77.4667 180 62.8 180ZM182.764 144C182.764 150 183.964 154.667 186.364 158C188.764 161.2 192.631 162.8 197.964 162.8C201.697 162.8 204.897 162.067 207.564 160.6C210.364 159 212.497 156.8 213.964 154C215.564 151.2 216.364 147.867 216.364 144V88H242.164V180H216.364V166C213.431 171.2 209.697 175.2 205.164 178C200.631 180.667 195.097 182 188.564 182C177.631 182 169.431 178.867 163.964 172.6C158.631 166.333 155.964 157.733 155.964 146.8V88H182.764V144ZM267.683 24H293.683V180H267.683V24ZM338.845 134C338.845 139.333 340.045 144 342.445 148C344.845 152 348.045 155.133 352.045 157.4C356.179 159.667 360.712 160.8 365.645 160.8C369.645 160.8 373.512 160.2 377.245 159C380.979 157.667 384.312 155.933 387.245 153.8C390.312 151.533 392.645 148.933 394.245 146V172.6C391.045 175.533 386.845 177.867 381.645 179.6C376.579 181.2 370.645 182 363.845 182C354.112 182 345.312 180 337.445 176C329.712 172 323.579 166.4 319.045 159.2C314.645 151.867 312.445 143.467 312.445 134C312.445 124.4 314.645 116 319.045 108.8C323.579 101.6 329.712 96 337.445 92C345.312 88 354.112 86 363.845 86C370.645 86 376.579 86.8667 381.645 88.6C386.845 90.2 391.045 92.4 394.245 95.2V121.8C392.645 118.867 390.245 116.333 387.045 114.2C383.979 111.933 380.579 110.2 376.845 109C373.112 107.8 369.379 107.2 365.645 107.2C360.712 107.2 356.179 108.4 352.045 110.8C348.045 113.067 344.845 116.2 342.445 120.2C340.045 124.2 338.845 128.8 338.845 134ZM460.497 182C450.497 182 441.764 180 434.297 176C426.83 172 421.03 166.467 416.897 159.4C412.897 152.2 410.897 143.733 410.897 134C410.897 124.133 412.897 115.667 416.897 108.6C421.03 101.4 426.83 95.8667 434.297 92C441.764 88 450.564 86 460.697 86C470.83 86 479.43 87.8667 486.497 91.6C493.697 95.2 499.164 100.533 502.897 107.6C506.63 114.533 508.497 122.933 508.497 132.8C508.497 134 508.43 135.267 508.297 136.6C508.297 137.933 508.23 139 508.097 139.8H425.697V123.8H485.497L478.497 133C479.03 132.2 479.497 131.133 479.897 129.8C480.43 128.333 480.697 127.133 480.697 126.2C480.697 121.667 479.83 117.8 478.097 114.6C476.497 111.4 474.164 108.867 471.097 107C468.03 105.133 464.43 104.2 460.297 104.2C455.23 104.2 450.964 105.333 447.497 107.6C444.164 109.733 441.564 113 439.697 117.4C437.964 121.667 437.03 127 436.897 133.4C436.897 139.533 437.764 144.733 439.497 149C441.364 153.267 444.097 156.533 447.697 158.8C451.297 161.067 455.63 162.2 460.697 162.2C466.43 162.2 471.297 161.133 475.297 159C479.43 156.733 482.83 153.4 485.497 149L508.097 156C503.297 164.667 496.897 171.2 488.897 175.6C481.03 179.867 471.564 182 460.497 182ZM532.634 148.2C536.501 151.8 540.101 154.733 543.434 157C546.768 159.133 549.901 160.733 552.834 161.8C555.901 162.867 558.768 163.4 561.434 163.4C564.901 163.4 567.568 162.667 569.434 161.2C571.301 159.6 572.234 157.467 572.234 154.8C572.234 152.4 571.434 150.4 569.834 148.8C568.368 147.067 566.168 145.533 563.234 144.2C560.301 142.867 556.568 141.467 552.034 140C547.768 138.4 543.634 136.533 539.634 134.4C535.634 132.133 532.301 129.2 529.634 125.6C527.101 121.867 525.834 117.133 525.834 111.4C525.834 105.933 527.301 101.333 530.234 97.6C533.168 93.7333 537.101 90.8667 542.034 89C547.101 87 552.701 86 558.834 86C564.034 86 568.901 86.6667 573.434 88C577.968 89.3333 582.168 91.1333 586.034 93.4C589.901 95.5333 593.301 98.0667 596.234 101L584.834 117C581.501 113.4 577.501 110.467 572.834 108.2C568.301 105.933 563.834 104.8 559.434 104.8C556.501 104.8 554.168 105.4 552.434 106.6C550.834 107.667 550.034 109.333 550.034 111.6C550.034 113.6 550.834 115.4 552.434 117C554.168 118.467 556.568 119.8 559.634 121C562.834 122.2 566.434 123.667 570.434 125.4C575.368 127.267 579.901 129.4 584.034 131.8C588.301 134.067 591.701 136.933 594.234 140.4C596.768 143.867 598.034 148.4 598.034 154C598.034 163.2 595.034 170.4 589.034 175.6C583.034 180.667 574.768 183.2 564.234 183.2C557.701 183.2 551.701 182.333 546.234 180.6C540.901 178.867 536.034 176.6 531.634 173.8C527.368 170.867 523.501 167.733 520.034 164.4L532.634 148.2ZM678.286 40H706.886V180H678.286V40ZM695.686 64.2V40H723.486C734.553 40 743.953 41.8 751.686 45.4C759.553 49 765.553 54.1333 769.686 60.8C773.819 67.4667 775.886 75.4 775.886 84.6C775.886 93.6667 773.819 101.6 769.686 108.4C765.553 115.067 759.553 120.2 751.686 123.8C743.953 127.4 734.553 129.2 723.486 129.2H695.686V105H723.486C731.086 105 737.086 103.267 741.486 99.8C745.886 96.3333 748.086 91.2667 748.086 84.6C748.086 77.8 745.886 72.7333 741.486 69.4C737.086 65.9333 731.086 64.2 723.486 64.2H695.686ZM798.158 139.8V123.8H853.158C852.624 119.8 851.558 116.333 849.958 113.4C848.358 110.467 846.158 108.2 843.358 106.6C840.558 105 837.024 104.2 832.758 104.2C828.358 104.2 824.424 105.2 820.958 107.2C817.491 109.067 814.758 111.867 812.758 115.6C810.758 119.333 809.758 123.733 809.758 128.8L809.358 134C809.358 140.533 810.358 145.933 812.358 150.2C814.491 154.333 817.358 157.4 820.958 159.4C824.558 161.267 828.624 162.2 833.158 162.2C837.158 162.2 840.691 161.667 843.758 160.6C846.824 159.533 849.558 158 851.958 156C854.358 154 856.358 151.667 857.958 149L880.558 156C877.491 161.2 873.891 165.8 869.758 169.8C865.624 173.667 860.558 176.667 854.558 178.8C848.691 180.933 841.491 182 832.958 182C822.691 182 813.824 179.933 806.358 175.8C798.891 171.667 793.158 166 789.158 158.8C785.291 151.467 783.358 143.2 783.358 134C783.358 132.267 783.424 130.6 783.558 129C783.691 127.4 783.891 125.8 784.158 124.2C785.491 116.6 788.224 109.933 792.358 104.2C796.491 98.4667 802.024 94 808.958 90.8C815.891 87.6 823.958 86 833.158 86C843.291 86 851.891 87.9333 858.958 91.8C866.158 95.5333 871.624 100.867 875.358 107.8C879.091 114.733 880.958 123.067 880.958 132.8C880.958 133.6 880.958 134.6 880.958 135.8C880.958 137 880.824 138.333 880.558 139.8H798.158ZM866.958 42.8L830.958 72.8L816.358 65L846.358 33L866.958 42.8ZM888.695 88H945.495V109.8H888.695V88ZM904.495 56H929.495V180H904.495V56ZM977.684 151.4C977.684 154.067 978.351 156.4 979.684 158.4C981.018 160.267 982.818 161.733 985.084 162.8C987.484 163.733 990.084 164.2 992.884 164.2C996.884 164.2 1000.48 163.4 1003.68 161.8C1006.88 160.067 1009.48 157.667 1011.48 154.6C1013.48 151.4 1014.48 147.6 1014.48 143.2L1017.68 155.2C1017.68 161.067 1016.02 166 1012.68 170C1009.48 174 1005.28 177 1000.08 179C995.018 181 989.684 182 984.084 182C978.351 182 973.018 180.867 968.084 178.6C963.151 176.333 959.151 173.067 956.084 168.8C953.151 164.4 951.684 159.067 951.684 152.8C951.684 143.867 954.818 136.8 961.084 131.6C967.351 126.4 976.218 123.8 987.684 123.8C993.551 123.8 998.684 124.4 1003.08 125.6C1007.62 126.8 1011.42 128.267 1014.48 130C1017.55 131.733 1019.75 133.4 1021.08 135V147C1017.48 144.333 1013.42 142.333 1008.88 141C1004.48 139.667 999.818 139 994.884 139C990.884 139 987.618 139.533 985.084 140.6C982.551 141.533 980.684 142.933 979.484 144.8C978.284 146.533 977.684 148.733 977.684 151.4ZM967.684 114L958.084 96.4C962.884 93.8667 968.751 91.4667 975.684 89.2C982.618 86.8 990.351 85.6 998.884 85.6C1006.75 85.6 1013.75 86.7333 1019.88 89C1026.02 91.2667 1030.82 94.6 1034.28 99C1037.75 103.267 1039.48 108.533 1039.48 114.8V180H1014.48V120.2C1014.48 117.667 1014.08 115.533 1013.28 113.8C1012.48 111.933 1011.22 110.4 1009.48 109.2C1007.88 108 1005.95 107.133 1003.68 106.6C1001.42 106.067 998.884 105.8 996.084 105.8C991.818 105.8 987.751 106.267 983.884 107.2C980.018 108.133 976.684 109.267 973.884 110.6C971.084 111.933 969.018 113.067 967.684 114ZM1063.58 24H1089.58V180H1063.58V24ZM1239.67 148.2C1243.53 151.8 1247.13 154.733 1250.47 157C1253.8 159.133 1256.93 160.733 1259.87 161.8C1262.93 162.867 1265.8 163.4 1268.47 163.4C1271.93 163.4 1274.6 162.667 1276.47 161.2C1278.33 159.6 1279.27 157.467 1279.27 154.8C1279.27 152.4 1278.47 150.4 1276.87 148.8C1275.4 147.067 1273.2 145.533 1270.27 144.2C1267.33 142.867 1263.6 141.467 1259.07 140C1254.8 138.4 1250.67 136.533 1246.67 134.4C1242.67 132.133 1239.33 129.2 1236.67 125.6C1234.13 121.867 1232.87 117.133 1232.87 111.4C1232.87 105.933 1234.33 101.333 1237.27 97.6C1240.2 93.7333 1244.13 90.8667 1249.07 89C1254.13 87 1259.73 86 1265.87 86C1271.07 86 1275.93 86.6667 1280.47 88C1285 89.3333 1289.2 91.1333 1293.07 93.4C1296.93 95.5333 1300.33 98.0667 1303.27 101L1291.87 117C1288.53 113.4 1284.53 110.467 1279.87 108.2C1275.33 105.933 1270.87 104.8 1266.47 104.8C1263.53 104.8 1261.2 105.4 1259.47 106.6C1257.87 107.667 1257.07 109.333 1257.07 111.6C1257.07 113.6 1257.87 115.4 1259.47 117C1261.2 118.467 1263.6 119.8 1266.67 121C1269.87 122.2 1273.47 123.667 1277.47 125.4C1282.4 127.267 1286.93 129.4 1291.07 131.8C1295.33 134.067 1298.73 136.933 1301.27 140.4C1303.8 143.867 1305.07 148.4 1305.07 154C1305.07 163.2 1302.07 170.4 1296.07 175.6C1290.07 180.667 1281.8 183.2 1271.27 183.2C1264.73 183.2 1258.73 182.333 1253.27 180.6C1247.93 178.867 1243.07 176.6 1238.67 173.8C1234.4 170.867 1230.53 167.733 1227.07 164.4L1239.67 148.2Z" fill="black"/>
<path d="M1176.8 122.877C1176.06 130.839 1169 136.692 1161.04 135.95C1153.08 135.208 1147.22 128.151 1147.96 120.189C1148.71 112.227 1155.76 106.374 1163.72 107.116C1171.69 107.859 1177.54 114.915 1176.8 122.877Z" stroke="black" stroke-width="8" stroke-linejoin="round"/>
<path d="M1167.49 66.7498C1180.23 67.9372 1189.51 79.9557 1188.32 92.695C1190.22 92.3908 1192.17 92.3179 1194.17 92.5039C1206.91 93.6913 1216.27 104.981 1215.09 117.72C1214.23 126.926 1208.1 134.371 1199.95 137.343C1202.45 141.449 1203.69 146.363 1203.21 151.514C1202.02 164.253 1190.74 173.618 1178 172.431C1169.31 171.622 1162.19 166.117 1158.92 158.659C1154.32 165.384 1146.31 169.478 1137.63 168.669C1124.89 167.481 1115.52 156.191 1116.71 143.452C1117.19 138.301 1119.32 133.701 1122.54 130.128C1115.08 125.702 1110.43 117.252 1111.29 108.046C1112.47 95.3066 1123.76 85.9418 1136.5 87.1292C1138.5 87.3152 1140.41 87.7489 1142.21 88.3973C1143.4 75.6579 1154.75 65.5625 1167.49 66.7498Z" stroke="black" stroke-width="16" stroke-linejoin="round"/>
</svg>
